PathFileType	4	(X/Y/Z)	53_1_8_p0_0-137_filt_butterworth.trc
DataRate	CameraRate	NumFrames	NumMarkers	Units	OrigDataRate	OrigDataStartFrame	OrigNumFrames
49.0	49.0	5	27	m	49.0	119	137
Frame#	Time	RHip			RKnee			RAnkle			RBigToe			RSmallToe			RHeel			LHip			LKnee			LAnkle			LBigToe			LSmallToe			LHeel			Neck			Head			Nose			RShoulder			RElbow			RWrist			RThumb			RIndex			RPinky			LShoulder			LElbow			LWrist			LThumb			LIndex			LPinky			
		X1	Y1	Z1	X2	Y2	Z2	X3	Y3	Z3	X4	Y4	Z4	X5	Y5	Z5	X6	Y6	Z6	X7	Y7	Z7	X8	Y8	Z8	X9	Y9	Z9	X10	Y10	Z10	X11	Y11	Z11	X12	Y12	Z12	X13	Y13	Z13	X14	Y14	Z14	X15	Y15	Z15	X16	Y16	Z16	X17	Y17	Z17	X18	Y18	Z18	X19	Y19	Z19	X20	Y20	Z20	X21	Y21	Z21	X22	Y22	Z22	X23	Y23	Z23	X24	Y24	Z24	X25	Y25	Z25	X26	Y26	Z26	X27	Y27	Z27	
119	2.4285714285714284	0.39690064372006373	0.6752052476742387	0.6321086022801553	0.387917540944156	0.7799688955796	1.0822123190566173	0.3763866705411323	0.901198121409506	1.5271447281836708	0.3025111839302873	0.6853430165407083	1.5435502892149289	0.36972164816117126	0.6974993182305179	1.5527876280634862	0.35306434607227155	0.988202950212073	1.5739406825528077	0.20035729436192093	0.7085511998772909	0.6216957672388322	0.19227960668906083	0.8239395031438126	1.0851916698470967	0.18437107825501994	0.9100735779137988	1.5037505007468683	0.1843541181797359	0.6960514965373555	1.5278316770423	0.11979566107366521	0.741915926387125	1.529612989046027	0.19866182306672017	0.9894522834284056	1.5773735257190284	0.3170415596142251	0.5220415454912699	0.05714813703237434	0.3156042219258189	0.4528364260022056	-0.171753328792098	0.27334388534428367	0.37657072283977716	-0.03903564293982711	0.4699693637305884	0.5277877337946055	0.16296546871883022	0.5304362128105734	0.5553455268049514	0.4283712958800415	0.40165172704797963	0.4748114094917013	0.5970500674588987	0.3283127603625745	0.3746056721304659	0.6723421810279753	0.3454866339637701	0.3505088224523728	0.6878921128904851	0.38746412743208103	0.37709527882177807	0.704975619298381	0.17283896457879094	0.6127821938802679	0.1398892617396382	0.13932400418675184	0.684279822345665	0.4110205128610799	0.1301210677353618	0.5401784188120708	0.6222953261694866	0.1628565170276857	0.47528673269681554	0.6974971003573335	0.14618475875258236	0.45272103583873446	0.7266018263658891	0.1430715441341062	0.5107477500438209	0.7388222435520534
120	2.4489795918367347	0.39700616435820635	0.6775378739385625	0.6324485566847486	0.3902780916036971	0.7803409114606598	1.081099114723229	0.3763657664889246	0.9012742035538844	1.5272709686145043	0.304919049650132	0.6940135762294876	1.5470046658982115	0.37076875926351777	0.7030259015103377	1.5549808358517951	0.3516301825937166	0.995681781839856	1.575530182339884	0.20044731012559378	0.7124892973879805	0.6212464186544843	0.19156962817944362	0.8176512873916615	1.0810048556861072	0.18388715271201383	0.9081277940793162	1.5012097015182417	0.18449085288036826	0.6961452409819658	1.527765176210046	0.11979159251989017	0.7419203857148755	1.5295558065616652	0.19866375152928578	0.9888792284603594	1.576920020535383	0.31704439778787363	0.5220642835349131	0.057170523002807616	0.3166491138534275	0.4535864116818315	-0.17189406164065907	0.27541431834312474	0.38120656430108274	-0.03960330929291625	0.4728574344587351	0.5366159275196488	0.16274362070467127	0.5295184167478758	0.5558232282924435	0.4306730516441821	0.3971387179038879	0.47091014721510954	0.5937153947583749	0.3186194526046018	0.3753140179530361	0.6638018981320266	0.33168609532334664	0.35266098516032823	0.6736232324740161	0.36526187476009986	0.36312988750299235	0.6908682003852051	0.17291305407040308	0.6130157018004245	0.13852803496118318	0.137837742013582	0.6858604155044572	0.41275100102646073	0.1436900365271637	0.5153992474392757	0.623120093221903	0.17901995243621271	0.4580357499696278	0.6837938842854474	0.16316619380013575	0.4424892701188009	0.7262397380531028	0.16212960362724313	0.48095472717416143	0.7374235582003369
121	2.4693877551020407	0.3979979419164239	0.6779301658082117	0.6326681656424601	0.39151322900079166	0.779924535296451	1.0802563305543513	0.3763495746208927	0.9013649795939808	1.5274279400357442	0.3074224811474897	0.7028545331160267	1.5505179711127994	0.3723141729767233	0.7069030809563802	1.5564949911747457	0.3505115627917922	1.00086994593459	1.5771691199796078	0.20126969351591367	0.7126505164945878	0.6217741977550053	0.19060274991087672	0.8162165600119293	1.0795347244148568	0.1835426773884972	0.9067298705290254	1.499461263937813	0.18398925728114085	0.6956834609177784	1.527601963037969	0.11975814407550094	0.7418944646241442	1.529511799809786	0.19861857008382341	0.989001330844703	1.5768117825290469	0.31704484537296534	0.521984303238138	0.05717054730608776	0.31676283445668485	0.4540741399519701	-0.17185099976824383	0.277430170950706	0.3844933918717942	-0.03999924427905849	0.4742948739635513	0.5406891207321737	0.16258881149263352	0.5278729594063454	0.5555076442121837	0.43211335607309836	0.39364760220856404	0.46849699595370337	0.5893376067618548	0.3085258391384249	0.3707074078013666	0.6509899753961028	0.31722807350631027	0.355129470400879	0.6617150649832859	0.34295302725282545	0.36406237556478693	0.684002971888283	0.1729446855045799	0.6136502143902981	0.1376212848780603	0.13549458235680284	0.6901997335793146	0.41264213874952094	0.15505371634409978	0.4941196543725814	0.6194874005394029	0.19920621811687594	0.43121535484736173	0.6661651486342592	0.18506562791117567	0.4209556587080431	0.7188260683329137	0.18198147832383255	0.45623626627836955	0.7340323953806998
122	2.489795918367347	0.3991682828313211	0.6781965629881795	0.6362755891637433	0.39267861810580773	0.7800375651841482	1.080420786106602	0.37635391360446313	0.9015656112208971	1.5271691840464574	0.30868698400281014	0.7072961775901929	1.5522078252906484	0.37337519618433335	0.7078495362235714	1.5568313898616197	0.3502893030638578	1.0020444287335506	1.5777218874240344	0.201735211293071	0.7126546166326234	0.6271723793644556	0.18995910959584641	0.8180415449433773	1.0811392765012924	0.18342284875264792	0.9063722991358861	1.4989791963458967	0.1823342960551395	0.6945963999095542	1.5273078610500996	0.11981833170370484	0.7418256417417204	1.5294877069650112	0.1984833529284771	0.9892825521711672	1.5769344049343486	0.3170329423259898	0.52189784529774	0.057110759240182246	0.3168222975824905	0.4532396226315356	-0.17191711961825884	0.2790187202875441	0.385566135623431	-0.040131537350805636	0.4743938735534183	0.5406974217875821	0.16240310574094158	0.5268348718376247	0.5551419280203463	0.4332922331903436	0.3901092059624728	0.4646330972485223	0.5841043143289764	0.296643024832811	0.3674068153764932	0.6339347697930093	0.297123767097576	0.3497738430146103	0.6496917312294361	0.32170659108219724	0.37313751497188963	0.6806275484100583	0.17299488795683512	0.6119805419073501	0.13757614462633264	0.1323518388912954	0.6980519281437931	0.41086640092915416	0.16081440743369435	0.4837782531589559	0.611007179238826	0.2192517872290592	0.4160597534541522	0.6451835186088235	0.20983133241420457	0.40879834907558527	0.7012108128048565	0.20575049189558145	0.44167548509418303	0.7285353116485206
123	2.510204081632653	0.3995008136301802	0.6790885573926574	0.6445859602323379	0.39430150399898867	0.7805133863779883	1.082241465992604	0.376355452356664	0.9019843695455487	1.5260007429674631	0.30881146970530926	0.7076505165783549	1.5522423394553941	0.3735580586093192	0.7073750008439009	1.556617274685735	0.35050842921681813	1.0014609075875558	1.5775727292826145	0.20086540709533865	0.7130639326817787	0.636984128207034	0.18917695830486844	0.8194001547342321	1.082878843465183	0.1834163856615205	0.9066219121710587	1.4991073239574289	0.1808738475636519	0.6947235605941756	1.5274221628313167	0.11999294720348035	0.741758436619736	1.5295042170257585	0.19830783485557915	0.9893516396396845	1.5771660990502243	0.3170008334494435	0.521911619724501	0.05701650126887735	0.31758358820638016	0.4497644874526052	-0.17141829041144463	0.27981435369982655	0.38550662977164085	-0.04013576249579422	0.47418161616846993	0.5399442263037593	0.16242075372027318	0.5267364120661584	0.5555225771164797	0.4357668273317518	0.3852092202494584	0.46115226667794434	0.5811079515452012	0.28498321726682757	0.3737873864869849	0.6170049756522822	0.2749249892421451	0.3457851165422971	0.6388908887864623	0.3014128294543808	0.38256809385524765	0.6772904964546912	0.1732308676821287	0.6046736304351881	0.13814496373897067	0.1296978561688896	0.7008848346907208	0.40866967878829275	0.16375908632992067	0.4795958759363993	0.5989057469275102	0.2348437963532618	0.42319696587916195	0.6256182667359944	0.23073029858663913	0.41349750039245714	0.6756211928034905	0.22792754902048318	0.4394204688829399	0.7197959002698027
